<svg xmlns="http://www.w3.org/2000/svg" xml:space="preserve" viewBox="0 0.3 82 73.5">
	<path style="fill:#060627"
		d="M82 .3 42.3 10.9l5.9 5.9L8.5 56.4l17.3 17.3L65.5 34l5.9 5.9zM0 .3 10.6 40l5.9-5.9 39.7 39.7 17.3-17.3-39.7-39.7 5.9-5.9z" />
	<path style="fill:#cff622"
		d="m77.5 4.8-7.8 29-4.2-4.2-39.7 39.6-2.8-2.8 11.6-11.7-2.1-2.1-11.6 11.7-2.9-2.9 11.6-11.6-2.1-2.1-11.6 11.6-2.9-2.9 39.7-39.6-4.3-4.3z" />
	<path style="fill:#fff"
		d="m4.5 4.8 29.1 7.7-4.3 4.3L69 56.4l-2.9 2.9-11.6-11.6-2.1 2.1L64 61.4l-2.9 2.9-11.6-11.7-2.1 2.1L59 66.4l-2.8 2.8-39.7-39.6-4.2 4.2z" />
</svg>